<svg width="512" height="512" viewBox="0 0 512 512" fill="none" xmlns="http://www.w3.org/2000/svg">
<path d="M255.407 501.461L78.7165 452.41L39.3418 10.7773H472.001L432.585 452.341L255.407 501.461Z" fill="#264DE4"/>
<path d="M398.841 424.224L432.524 46.8877H255.672V463.916L398.841 424.224Z" fill="#264DE4"/>
<path d="M129.605 210.685L134.46 264.848H255.67V210.685H129.605Z" fill="#EBEBEB"/>
<path d="M119.854 101.053L124.777 155.218H255.672V101.053H119.854Z" fill="#EBEBEB"/>
<path d="M255.672 351.354L255.435 351.417L195.112 335.128L191.255 291.93H136.883L144.471 376.976L255.423 407.777L255.672 407.707V351.354Z" fill="#EBEBEB"/>
<path d="M381.389 210.683L391.167 101.053H255.484V155.218H331.808L326.879 210.683H255.484V264.847H322.182L315.895 335.094L255.484 351.399V407.751L366.524 376.976L367.339 367.825L380.067 225.228L381.389 210.683Z" fill="white"/>
</svg>
