<svg width="512" height="512" viewBox="0 0 512 512" fill="none" xmlns="http://www.w3.org/2000/svg">
<path d="M464 20L426.102 444.561L255.746 491.788L85.8592 444.626L48 20H464Z" fill="#E44D26"/>
<path d="M256 455.689L393.656 417.526L426.041 54.7188H256V455.689Z" fill="#E44D26"/>
<path d="M182.326 158.878H256V106.799H125.411L126.657 120.77L139.458 264.286H256V212.207H187.086L182.326 158.878ZM194.064 290.326H141.785L149.08 372.097L255.76 401.71L256 401.645V347.461L255.772 347.522L197.772 331.861L194.064 290.326Z" fill="#EBEBEB"/>
<path d="M255.818 264.286H319.947L313.901 331.828L255.816 347.505V401.686L362.581 372.097L363.364 363.298L375.604 226.192L376.874 212.207H255.818V264.286ZM255.818 158.75V158.878H381.613L382.656 147.173L385.031 120.77L386.275 106.799H255.818V158.75Z" fill="white"/>
</svg>
